<svg width="80" height="80" viewBox="0 0 80 80" fill="none" xmlns="http://www.w3.org/2000/svg">
<path d="M56.5733 20.8367C55.8079 20.4113 54.9663 20.1408 54.0964 20.0408C53.2265 19.9407 52.3454 20.013 51.5035 20.2535C50.6615 20.4941 49.8752 20.8981 49.1894 21.4425C48.5036 21.987 47.9318 22.6612 47.5066 23.4267L35.13 45.7L28.0466 38.6167C27.4317 37.9799 26.696 37.4721 25.8827 37.1227C25.0693 36.7733 24.1945 36.5894 23.3093 36.5817C22.4241 36.574 21.5463 36.7427 20.7269 37.0779C19.9076 37.4131 19.1633 37.9081 18.5373 38.534C17.9114 39.16 17.4164 39.9043 17.0812 40.7236C16.746 41.543 16.5773 42.4208 16.585 43.306C16.5927 44.1912 16.7766 45.066 17.126 45.8794C17.4754 46.6927 17.9832 47.4284 18.62 48.0433L31.9533 61.3767C33.2133 62.64 34.9133 63.3333 36.6666 63.3333L37.59 63.2667C38.6118 63.1237 39.5865 62.7456 40.4374 62.1619C41.2882 61.5783 41.992 60.8052 42.4933 59.9033L59.16 29.9033C59.5855 29.1382 59.8561 28.2967 59.9564 27.4269C60.0567 26.5572 59.9847 25.6762 59.7445 24.8343C59.5043 23.9923 59.1006 23.206 58.5565 22.5201C58.0124 21.8341 57.3385 21.2621 56.5733 20.8367Z" fill="#80BA41"/>
</svg>
